<svg width="1440" height="875" viewBox="0 0 1440 875" fill="none" xmlns="http://www.w3.org/2000/svg">
<path d="M412.226 686.099C411.372 686.139 410.526 685.914 409.804 685.457C409.081 685 408.517 684.331 408.187 683.542C407.857 682.753 407.778 681.882 407.96 681.047C408.141 680.211 408.576 679.452 409.204 678.871L409.489 677.735C409.452 677.644 409.414 677.553 409.376 677.463C405.536 668.308 381.034 693.828 379.975 702.432C379.508 706.235 379.705 710.091 380.557 713.826C372.62 696.516 368.499 677.701 368.472 658.659C368.471 653.88 368.736 649.105 369.268 644.356C369.707 640.463 370.316 636.598 371.096 632.76C375.35 611.937 384.483 592.42 397.745 575.812C405.33 576.235 411.977 575.08 412.619 560.382C412.733 557.768 414.673 555.504 415.1 552.928C414.376 553.023 413.64 553.083 412.916 553.13C412.69 553.142 412.453 553.154 412.227 553.166L412.142 553.169C411.347 553.205 410.557 553.01 409.87 552.608C409.182 552.205 408.626 551.613 408.267 550.902C407.909 550.19 407.763 549.391 407.849 548.599C407.934 547.807 408.247 547.057 408.749 546.438C409.061 546.053 409.374 545.669 409.687 545.285C410.162 544.691 410.649 544.109 411.124 543.516C411.178 543.46 411.23 543.4 411.278 543.338C411.824 542.661 412.37 541.997 412.916 541.32C411.919 539.773 410.579 538.478 408.999 537.534C403.526 534.329 395.977 536.549 392.024 541.498C388.059 546.448 387.311 553.391 388.688 559.575C390.042 564.837 392.282 569.83 395.312 574.34C395.015 574.72 394.706 575.088 394.41 575.468C388.985 582.443 384.256 589.932 380.293 597.829C381.414 589.071 367.701 557.44 362.398 550.74C356.027 542.693 342.965 546.205 341.843 556.406C341.832 556.505 341.821 556.604 341.811 556.703C342.599 557.147 343.37 557.619 344.124 558.117C345.072 558.751 345.806 559.655 346.231 560.713C346.656 561.77 346.751 562.932 346.505 564.044C346.258 565.157 345.681 566.169 344.849 566.949C344.018 567.728 342.97 568.238 341.843 568.411L341.728 568.429C331.184 583.482 364.985 622.661 373.446 613.864C369.464 625.149 366.966 636.903 366.015 648.831C365.477 655.868 365.509 662.938 366.11 669.97L366.075 669.72C364.195 654.404 331.944 631.632 322.526 633.529C317.101 634.622 311.757 634.373 312.581 639.845C312.594 639.932 312.608 640.02 312.621 640.107C314.083 640.702 315.506 641.388 316.883 642.16C317.67 642.605 318.441 643.076 319.196 643.575C320.144 644.208 320.878 645.113 321.303 646.171C321.728 647.228 321.823 648.389 321.576 649.502C321.33 650.615 320.753 651.627 319.921 652.407C319.089 653.186 318.041 653.696 316.915 653.869L316.799 653.887C316.716 653.899 316.645 653.911 316.562 653.923C311.763 670.435 347.356 697.084 368.995 688.604H369.007C371.151 697.922 374.258 706.991 378.278 715.666H411.397C411.515 715.298 411.622 714.918 411.729 714.55C408.663 714.743 405.586 714.56 402.565 714.004C405.022 710.99 407.479 707.951 409.936 704.936C409.991 704.88 410.043 704.82 410.091 704.758C411.337 703.215 412.595 701.684 413.842 700.141L413.843 700.139C413.909 695.41 413.366 690.691 412.227 686.1L412.226 686.099ZM374.301 611.502L374.318 611.479L374.301 611.526V611.502ZM366.965 677.625L366.68 676.985C366.692 676.522 366.692 676.059 366.68 675.584C366.68 675.453 366.656 675.323 366.656 675.192C366.763 676.011 366.858 676.83 366.977 677.649L366.965 677.625Z" fill="#E7E7E7"/>
<path d="M1047.01 715.496L1046.84 714.337C1043.83 693.849 1045.3 672.951 1051.15 653.087C1057 633.222 1067.1 614.866 1080.74 599.285C1088.48 590.612 1097.28 582.947 1106.93 576.471L1107.8 575.888L1108.3 577.381C1108.88 579.026 1110.01 580.421 1111.49 581.334C1112.98 582.247 1114.73 582.622 1116.46 582.395C1118.18 582.168 1119.78 581.353 1120.98 580.088C1122.18 578.823 1122.9 577.184 1123.04 575.446L1123.71 566.684L1124.74 566.173C1129.57 563.765 1135.01 562.86 1140.36 563.575C1145.71 564.291 1150.72 566.594 1154.75 570.187C1158.92 573.754 1161.93 578.49 1163.38 583.783C1164.83 589.076 1164.66 594.682 1162.9 599.878C1161.32 604.667 1159.81 609.638 1158.36 614.445C1153.38 630.885 1148.24 647.882 1138.88 662.032C1131.73 672.711 1122.26 681.64 1111.18 688.151C1100.1 694.663 1087.69 698.589 1074.88 699.638L1047.01 715.496Z" fill="#F2F2F2"/>
<path d="M1106.19 0L1110.97 3.88064C1109.35 2.52241 1107.67 1.24894 1105.95 0.0439588C1106.03 0.0298425 1106.11 0.0140523 1106.19 0Z" fill="#F2F2F2"/>
<path d="M1100.51 529.781L1055.34 509.857V492.728L1071.44 492.638C1073.93 492.624 1076.36 491.828 1078.39 490.362C1080.41 488.896 1081.92 486.834 1082.71 484.464L1094.02 463.349C1094.62 461.552 1094.78 459.638 1094.5 457.766C1094.21 455.893 1093.48 454.115 1092.38 452.579C1091.27 451.042 1089.81 449.791 1088.12 448.927C1086.44 448.064 1084.57 447.614 1082.68 447.614L1055.34 457.217V441.278H1089.66C1092.36 441.278 1094.99 440.361 1097.11 438.676C1099.22 436.991 1100.7 434.638 1101.31 432.002L1109.1 398.131C1109.5 396.379 1109.5 394.559 1109.1 392.806C1108.71 391.053 1107.92 389.413 1106.8 388.006C1105.68 386.6 1104.26 385.465 1102.64 384.684C1101.02 383.904 1099.24 383.498 1097.45 383.498H1055.34V379.513C1055.34 377.4 1054.5 375.373 1053 373.878C1051.51 372.383 1049.48 371.544 1047.37 371.544C1045.25 371.544 1043.23 372.383 1041.73 373.878C1040.24 375.373 1039.4 377.4 1039.4 379.513V383.498H757.105V379.513C757.105 377.4 756.265 375.373 754.77 373.878C753.276 372.383 751.248 371.544 749.134 371.544C747.02 371.544 744.993 372.383 743.498 373.878C742.003 375.373 741.164 377.4 741.164 379.513V383.498H707.692C705.894 383.498 704.12 383.904 702.5 384.684C700.881 385.465 699.458 386.6 698.339 388.006C697.219 389.413 696.431 391.053 696.033 392.806C695.635 394.559 695.637 396.379 696.04 398.131L703.827 432.002C704.433 434.638 705.916 436.991 708.032 438.676C710.149 440.361 712.774 441.278 715.479 441.278H741.164V457.217L722.461 447.614C720.576 447.614 718.719 448.06 717.039 448.914C715.36 449.768 713.906 451.007 712.797 452.53C711.687 454.053 710.954 455.817 710.655 457.677C710.357 459.537 710.503 461.442 711.081 463.235L722.623 486.245C723.402 488.664 724.932 490.771 726.99 492.261C729.049 493.752 731.528 494.547 734.069 494.533L741.164 494.493V509.857L704.632 529.781C701.461 529.781 698.42 531.041 696.178 533.283C693.935 535.525 692.676 538.565 692.676 541.736V541.736C692.676 544.906 693.935 547.947 696.178 550.189C698.42 552.431 701.461 553.69 704.632 553.69H741.164V708.576C741.164 710.69 742.004 712.717 743.498 714.212C744.993 715.706 747.02 716.546 749.134 716.546C751.248 716.546 753.276 715.706 754.77 714.212C756.265 712.717 757.105 710.69 757.105 708.576V553.69H1039.4V710.177C1039.4 712.291 1040.24 714.318 1041.73 715.812C1043.23 717.307 1045.25 718.146 1047.37 718.146C1049.48 718.146 1051.51 717.307 1053 715.812C1054.5 714.318 1055.34 712.291 1055.34 710.177V553.69H1100.51C1103.68 553.69 1106.72 552.431 1108.96 550.189C1111.2 547.947 1112.46 544.906 1112.46 541.736V541.736C1112.46 538.565 1111.2 535.525 1108.96 533.283C1106.72 531.041 1103.68 529.781 1100.51 529.781H1100.51ZM757.105 441.278H1039.4V457.217H757.105V441.278ZM757.105 509.857V494.404L1039.4 492.818V509.857L757.105 509.857Z" fill="#CCCCCC"/>
<path d="M1252.67 717.462C1252.67 717.712 1252.62 717.96 1252.52 718.192C1252.43 718.423 1252.29 718.633 1252.11 718.81C1251.93 718.987 1251.72 719.127 1251.49 719.223C1251.26 719.318 1251.01 719.367 1250.76 719.366L1149.87 719.414L1124.71 719.43L1108.11 719.446H1089.75L1079.73 719.462L1051.91 719.478L614.183 719.702L610.854 719.718L415.058 719.782H411.824L245.161 719.846H241.927L189.905 719.862C189.4 719.862 188.915 719.662 188.558 719.305C188.201 718.947 188 718.463 188 717.958C188 717.453 188.201 716.968 188.558 716.611C188.915 716.254 189.4 716.053 189.905 716.053L242.471 716.037H245.705L412.32 715.973H415.554L609.829 715.909H613.143L778.686 715.845H780.863L1048.87 715.685L1076.64 715.669L1089.35 715.653L1109.44 715.637H1126.6L1153.63 715.621L1250.76 715.557C1251.01 715.556 1251.26 715.605 1251.49 715.701C1251.72 715.796 1251.93 715.936 1252.11 716.113C1252.29 716.29 1252.43 716.501 1252.52 716.732C1252.62 716.964 1252.67 717.211 1252.67 717.462V717.462Z" fill="#CACACA"/>
</svg>
